<?xml version="1.0" standalone="no"?>
<!DOCTYPE svg PUBLIC "-//W3C//DTD SVG 20010904//EN"
 "http://www.w3.org/TR/2001/REC-SVG-20010904/DTD/svg10.dtd">
<svg version="1.0" xmlns="http://www.w3.org/2000/svg"
 width="350.000000pt" height="350.000000pt" viewBox="0 0 350.000000 350.000000"
 preserveAspectRatio="xMidYMid meet">
<metadata>
Created by potrace 1.11, written by Peter Selinger 2001-2013
</metadata>
<g transform="translate(0.000000,350.000000) scale(0.100000,-0.100000)"
fill="#000000" stroke="none">
<path d="M415 3396 c-31 -23 -24 -128 34 -516 76 -502 110 -734 122 -830 9
-69 50 -250 75 -332 4 -13 0 -18 -15 -18 -11 0 -22 -8 -25 -17 -12 -43 -146
-627 -146 -639 0 -11 21 -14 89 -14 l89 0 11 -46 c9 -35 9 -60 0 -103 -23
-112 -17 -176 27 -291 23 -58 49 -127 59 -154 24 -65 55 -93 118 -104 29 -6
367 -29 752 -52 401 -24 711 -47 725 -54 14 -6 34 -30 45 -52 31 -64 43 -74
89 -74 33 0 48 6 67 26 22 24 24 34 25 133 0 59 4 112 8 119 11 18 48 15 119
-9 73 -25 133 -21 158 10 9 11 24 53 34 93 26 110 90 305 158 478 76 197 87
238 87 330 0 91 -20 178 -60 267 -25 55 -29 75 -24 110 l6 43 -33 0 c-30 0
-38 6 -72 59 -21 33 -56 105 -77 161 -45 118 -46 120 -121 171 -31 21 -71 55
-88 76 l-31 37 55 56 c52 52 55 59 55 105 0 46 -3 51 -52 98 -83 78 -426 408
-465 447 l-35 34 -39 -43 c-22 -24 -41 -42 -43 -40 -2 2 -14 29 -28 60 -34 74
-86 125 -177 173 -119 62 -134 91 -86 162 30 44 32 93 6 125 l-19 24 -679 3
c-579 2 -682 0 -698 -12z m1300 -93 c-8 -8 -19 -11 -25 -8 -17 11 -11 20 15
21 21 2 22 0 10 -13z m-59 -14 c7 -6 8 -23 0 -58 -16 -83 1 -121 87 -185 40
-30 100 -70 134 -90 58 -34 66 -43 99 -112 l36 -76 -20 -21 c-17 -17 -25 -18
-49 -9 -144 56 -375 43 -529 -29 -34 -16 -65 -29 -68 -29 -3 0 -48 40 -99 89
-183 177 -176 172 -229 169 -27 -1 -48 -2 -48 -3 0 -1 -11 -63 -25 -136 -14
-74 -27 -143 -29 -154 -7 -35 -25 -139 -31 -175 -3 -19 -26 -143 -50 -275 -24
-132 -46 -251 -48 -265 -3 -14 -8 -42 -12 -62 -8 -41 -12 -38 60 -42 28 -2 60
8 130 40 17 7 95 42 174 77 l145 64 45 -32 c61 -43 94 -60 171 -84 160 -50
344 -41 494 24 l39 17 76 -74 c41 -40 79 -77 82 -83 4 -5 42 27 84 70 42 44
119 124 171 177 l94 97 25 -33 c14 -18 53 -53 88 -76 82 -57 93 -71 122 -165
14 -44 32 -93 40 -109 9 -16 14 -30 12 -32 -1 -2 -106 -3 -232 -2 -127 1 -273
1 -325 2 -141 0 -251 -46 -299 -125 l-19 -31 -11 34 c-15 45 -55 83 -111 105
-37 14 -76 17 -215 17 -93 0 -182 -3 -196 -7 -25 -6 -28 -17 -97 -319 -40
-172 -72 -321 -72 -330 0 -16 13 -18 124 -18 l125 0 18 79 c9 44 20 78 24 75
4 -2 19 -38 34 -79 l28 -76 171 -1 c483 -4 447 -5 493 20 107 56 153 125 153
224 0 95 -36 136 -168 195 l-57 26 29 12 c24 10 39 10 80 -2 28 -8 99 -17 159
-20 59 -3 107 -7 107 -9 0 -1 -22 -97 -50 -213 -28 -116 -50 -215 -50 -221 0
-12 260 -14 261 -2 0 4 24 104 52 222 l52 215 63 3 c72 3 70 5 99 -122 24
-105 9 -181 -78 -390 -90 -214 -94 -227 -130 -361 -16 -62 -36 -115 -45 -122
-13 -9 -26 -8 -65 8 -28 10 -70 19 -95 19 -83 0 -126 -41 -143 -133 -6 -39 -9
-42 -36 -40 -17 0 -167 10 -335 22 -168 11 -453 30 -635 41 -544 33 -554 34
-575 56 -18 18 -55 108 -100 246 -18 53 -18 61 -3 153 14 83 15 105 3 149 -16
64 -17 148 -1 204 l12 42 108 0 109 0 16 73 c9 39 19 82 22 95 6 22 6 22 -104
22 l-110 0 7 28 7 27 106 3 106 3 21 84 c11 46 21 91 21 100 0 13 -23 15 -158
15 l-158 0 -37 153 c-20 83 -41 184 -47 222 -9 70 -38 263 -125 850 -25 171
-48 316 -50 323 -3 7 0 22 5 33 10 17 26 19 248 22 347 4 885 -4 898 -14z
m-460 -738 c9 -11 6 -26 -10 -60 -18 -38 -21 -67 -23 -175 l-2 -129 -41 -18
c-53 -24 -53 -24 -46 9 4 15 8 38 11 52 3 14 14 70 25 125 10 55 22 118 26
140 3 22 8 47 9 55 2 8 4 21 4 29 1 11 4 11 19 0 9 -8 22 -20 28 -28z m602 10
c7 -4 -18 -36 -68 -86 -43 -44 -81 -80 -83 -80 -3 0 -37 30 -76 67 l-70 68 62
18 c62 19 213 27 235 13z m575 -191 c26 -24 47 -49 47 -55 0 -5 -48 -59 -107
-120 -58 -60 -101 -103 -95 -94 42 57 61 233 37 337 l-13 54 42 -38 c22 -22
62 -59 89 -84z m-277 -2 c19 -42 12 -70 -29 -122 l-24 -29 -69 66 -69 66 59
60 59 60 28 -32 c16 -18 36 -49 45 -69z m-694 -18 l49 -49 -36 -15 c-57 -24
-67 -23 -86 9 -16 27 -16 33 -2 68 8 20 17 37 20 37 3 0 27 -22 55 -50z m389
-187 c27 -26 49 -50 49 -53 0 -3 -15 -7 -32 -8 -18 -2 -52 -4 -76 -6 -49 -5
-182 14 -182 25 0 4 10 11 22 15 12 3 54 22 92 40 39 18 73 34 75 34 2 0 26
-21 52 -47z m-114 -683 c4 -33 -16 -56 -61 -75 -36 -15 -37 -15 -32 2 2 10 10
37 16 61 10 41 13 43 43 40 26 -2 32 -8 34 -28z m323 -144 c18 -15 60 -41 92
-57 33 -17 58 -35 55 -42 -6 -19 -84 -20 -135 -3 -83 29 -86 27 -112 -69 -13
-47 -24 -84 -25 -83 -2 2 -23 45 -49 95 l-46 93 33 14 c41 17 105 81 113 113
l6 24 18 -28 c9 -16 32 -41 50 -57z m463 -1032 c3 -3 3 -12 0 -20 -4 -11 -7
-11 -19 1 -8 7 -14 16 -14 19 0 8 25 8 33 0z"/>
<path d="M1106 1683 c-12 -40 -146 -625 -146 -638 0 -12 22 -15 130 -15 72 0
130 3 130 6 0 3 34 151 75 329 41 177 75 325 75 329 0 3 -58 6 -129 6 -115 0
-130 -2 -135 -17z"/>
<path d="M2784 1145 c-25 -19 -14 -19 22 0 16 8 22 15 13 15 -8 0 -24 -7 -35
-15z"/>
<path d="M2850 1141 c0 -5 5 -13 10 -16 6 -3 10 -2 10 4 0 5 -4 13 -10 16 -5
3 -10 2 -10 -4z"/>
<path d="M2800 1106 c0 -29 26 -42 38 -18 13 23 4 42 -19 42 -13 0 -19 -7 -19
-24z"/>
<path d="M2870 1102 c0 -7 -9 -21 -20 -32 -11 -11 -16 -20 -10 -20 13 0 44 49
36 57 -3 3 -6 1 -6 -5z"/>
<path d="M2772 1080 c9 -14 24 -26 34 -27 13 -2 14 -1 4 3 -8 4 -23 16 -34 28
l-18 21 14 -25z"/>
<path d="M1020 844 c-6 -14 -30 -72 -55 -130 -57 -134 -57 -144 -5 -144 36 0
42 4 57 35 15 31 21 35 55 35 35 0 41 -4 54 -35 13 -33 17 -35 59 -35 35 0 45
4 45 16 0 9 -26 76 -57 150 l-58 134 -43 0 c-36 0 -44 -4 -52 -26z m60 -124
c0 -5 -5 -10 -11 -10 -5 0 -7 5 -4 10 3 6 8 10 11 10 2 0 4 -4 4 -10z"/>
<path d="M1240 720 l0 -150 94 0 94 0 7 38 c6 31 9 34 15 17 21 -54 108 -80
183 -56 59 20 71 49 75 184 l4 117 -46 0 -46 0 0 -95 c0 -83 -3 -98 -21 -116
-18 -18 -23 -19 -42 -6 -28 18 -35 45 -36 140 l-1 77 -40 0 -40 0 0 -110 0
-110 -60 0 -60 0 0 110 0 110 -40 0 -40 0 0 -150z"/>
<path d="M1756 843 c-3 -16 -10 -71 -16 -123 -6 -52 -13 -107 -16 -122 -5 -27
-4 -28 39 -28 l45 0 7 68 7 67 26 -52 c24 -48 29 -53 60 -53 30 0 35 4 56 52
l23 52 6 -40 c4 -21 7 -51 7 -66 0 -27 2 -28 46 -28 l46 0 -6 43 c-3 23 -11
90 -17 150 l-12 107 -42 0 -42 0 -32 -70 -33 -71 -34 71 c-33 69 -34 70 -73
70 -35 0 -40 -3 -45 -27z"/>
<path d="M2110 720 l0 -150 40 0 39 0 3 75 3 76 63 -76 c59 -70 65 -75 102
-75 l40 0 0 150 0 150 -40 0 -39 0 -3 -76 -3 -76 -60 75 c-58 73 -62 76 -102
76 l-43 1 0 -150z"/>
<path d="M2440 720 l0 -150 45 0 45 0 0 150 0 150 -45 0 -45 0 0 -150z"/>
</g>
</svg>
